<svg xmlns="http://www.w3.org/2000/svg"  viewBox="0 0 48 48" width="50px" height="50px" baseProfile="basic"><path fill="#fd9900" d="M40.878,42H7.122C6.502,42,6,41.498,6,40.878V22.122C6,21.502,6.502,21,7.122,21h33.755	C41.498,21,42,21.502,42,22.122v18.755C42,41.498,41.498,42,40.878,42z"/><path fill="#212121" d="M6,18.26V6.206h3.906c1.48,0,2.445,0.06,2.895,0.181c0.69,0.181,1.268,0.574,1.735,1.18 c0.466,0.606,0.699,1.389,0.699,2.348c0,0.74-0.134,1.363-0.404,1.867c-0.268,0.505-0.61,0.901-1.023,1.188 c-0.414,0.288-0.835,0.478-1.262,0.571c-0.582,0.115-1.422,0.173-2.524,0.173H8.435v4.547H6z M8.435,8.245v3.421h1.332 c0.959,0,1.6-0.063,1.924-0.189c0.324-0.126,0.576-0.323,0.761-0.592c0.183-0.268,0.275-0.581,0.275-0.937 c0-0.439-0.128-0.801-0.386-1.086c-0.258-0.285-0.584-0.463-0.978-0.534c-0.291-0.055-0.875-0.082-1.751-0.082H8.435z"/><path fill="#212121" d="M16.682,13.771c0-0.767,0.189-1.51,0.567-2.228c0.379-0.718,0.915-1.266,1.608-1.645 C19.55,9.519,20.325,9.33,21.18,9.33c1.32,0,2.404,0.429,3.248,1.287s1.266,1.942,1.266,3.252c0,1.322-0.427,2.416-1.279,3.285 c-0.852,0.869-1.925,1.303-3.22,1.303c-0.8,0-1.563-0.181-2.289-0.543c-0.727-0.362-1.279-0.892-1.658-1.591 C16.871,15.625,16.682,14.774,16.682,13.771z M19.05,13.894c0,0.866,0.205,1.529,0.617,1.99c0.411,0.461,0.918,0.691,1.52,0.691 c0.604,0,1.109-0.23,1.517-0.691c0.409-0.46,0.613-1.129,0.613-2.006c0-0.855-0.204-1.513-0.613-1.973 c-0.408-0.46-0.914-0.69-1.517-0.69c-0.602,0-1.109,0.23-1.52,0.69C19.255,12.364,19.05,13.028,19.05,13.894z"/><path fill="#212121" d="M29.715,18.26h-2.31V9.528h2.146v1.241c0.367-0.586,0.698-0.973,0.992-1.159 c0.292-0.186,0.625-0.28,0.999-0.28c0.525,0,1.033,0.146,1.521,0.436l-0.716,2.015c-0.389-0.252-0.751-0.378-1.085-0.378 c-0.324,0-0.597,0.089-0.822,0.267c-0.225,0.178-0.402,0.5-0.531,0.966c-0.129,0.466-0.194,1.442-0.194,2.927V18.26z"/><path fill="#212121" d="M42,18.26h-2.31v-4.457c0-0.943-0.05-1.553-0.149-1.83c-0.098-0.276-0.258-0.492-0.481-0.645 c-0.222-0.153-0.489-0.23-0.801-0.23c-0.401,0-0.76,0.11-1.078,0.329c-0.317,0.22-0.536,0.51-0.653,0.872 c-0.118,0.362-0.177,1.031-0.177,2.006v3.955h-2.31V9.528h2.146v1.283c0.763-0.986,1.721-1.48,2.878-1.48 c0.51,0,0.976,0.092,1.397,0.276c0.422,0.184,0.742,0.418,0.958,0.703c0.216,0.285,0.367,0.609,0.453,0.97 C41.957,11.64,42,12.159,42,12.833V18.26z"/><g><path fill="#212121" d="M13.295,25.597v4.159c0.7-0.818,1.536-1.227,2.508-1.227c0.499,0,0.949,0.093,1.351,0.278 c0.401,0.186,0.704,0.422,0.907,0.71s0.342,0.607,0.417,0.957c0.074,0.35,0.111,0.893,0.111,1.628v4.808h-2.168v-4.329 c0-0.859-0.042-1.405-0.124-1.636s-0.228-0.416-0.436-0.552c-0.209-0.136-0.47-0.205-0.783-0.205c-0.36,0-0.682,0.088-0.965,0.263 s-0.49,0.438-0.621,0.791c-0.132,0.352-0.197,0.873-0.197,1.562v4.105h-2.168V25.597H13.295z"/><path fill="#212121" d="M26.183,36.91v-1.227c-0.298,0.438-0.69,0.782-1.177,1.034s-0.999,0.378-1.539,0.378 c-0.551,0-1.045-0.121-1.482-0.363c-0.437-0.242-0.753-0.581-0.948-1.019c-0.196-0.437-0.294-1.042-0.294-1.813v-5.186h2.169v3.766 c0,1.153,0.039,1.859,0.119,2.119s0.226,0.465,0.437,0.617s0.479,0.228,0.803,0.228c0.37,0,0.702-0.102,0.995-0.305 s0.494-0.456,0.602-0.756c0.108-0.301,0.162-1.038,0.162-2.211v-3.457h2.169v8.195H26.183z"/><path fill="#212121" d="M30.35,36.91V25.597h2.168v4.074c0.669-0.761,1.461-1.142,2.377-1.142 c0.998,0,1.824,0.362,2.478,1.084s0.979,1.761,0.979,3.114c0,1.399-0.333,2.477-0.999,3.233s-1.476,1.134-2.427,1.134 c-0.469,0-0.93-0.117-1.386-0.351c-0.455-0.234-0.848-0.58-1.177-1.038v1.204H30.35z M32.503,32.634c0,0.849,0.133,1.477,0.4,1.883 c0.376,0.576,0.875,0.864,1.497,0.864c0.479,0,0.887-0.205,1.224-0.614c0.337-0.409,0.506-1.053,0.506-1.933 c0-0.936-0.17-1.611-0.51-2.025s-0.774-0.622-1.304-0.622c-0.521,0-0.952,0.202-1.297,0.606S32.503,31.812,32.503,32.634z"/></g></svg>